<?xml version="1.0" encoding="UTF-8"?><svg xmlns="http://www.w3.org/2000/svg" xmlns:xlink="http://www.w3.org/1999/xlink" viewBox="0 0 205.67 92.92"><defs><style>.l{fill:url(#j);}.l,.m{mix-blend-mode:multiply;}.n{filter:url(#f);}.o{isolation:isolate;}.p{mask:url(#g);}.q{opacity:.8;}.q,.r{fill:#ed1c24;}.s{fill:#3a3a3a;}.t{filter:url(#i);}.m{fill:url(#k);opacity:.45;}.u{fill:none;}.v{fill:#d93032;}.w{mask:url(#d);}</style><filter id="f" x="14.98" y="88.39" width="47.95" height="4.53" color-interpolation-filters="sRGB" filterUnits="userSpaceOnUse"><feFlood flood-color="#fff" result="bg"/><feBlend in="SourceGraphic" in2="bg"/></filter><filter id="i" x="14.98" y="-8714.98" width="47.95" height="32766" color-interpolation-filters="sRGB" filterUnits="userSpaceOnUse"><feFlood flood-color="#fff" result="bg"/><feBlend in="SourceGraphic" in2="bg"/></filter><mask id="g" x="14.98" y="-8714.98" width="47.95" height="32766" maskUnits="userSpaceOnUse"><g class="t"/></mask><radialGradient id="j" cx="-317.95" cy="-3248.56" fx="-317.95" fy="-3248.56" r="17.47" gradientTransform="translate(475.33 512.32) scale(1.37 .13)" gradientUnits="userSpaceOnUse"><stop offset="0" stop-color="#fff"/><stop offset="1" stop-color="#000"/></radialGradient><mask id="d" x="14.98" y="88.39" width="47.95" height="4.53" maskUnits="userSpaceOnUse"><g class="n"><g class="p"><ellipse class="l" cx="38.95" cy="90.66" rx="23.98" ry="2.27"/></g></g></mask><radialGradient id="k" cx="-317.95" cy="-3248.56" fx="-317.95" fy="-3248.56" r="17.47" gradientTransform="translate(475.33 512.32) scale(1.37 .13)" gradientUnits="userSpaceOnUse"><stop offset="0" stop-color="#959ca3"/><stop offset="1" stop-color="#fff"/></radialGradient></defs><g class="o"><g id="a"/><g id="b"><g id="c"><g><circle class="q" cx="17.28" cy="10.48" r="5.36"/><path class="r" d="M60.09,0c-4.81,0-8.7,3.9-8.7,8.7s3.9,8.7,8.7,8.7,8.7-3.9,8.7-8.7S64.89,0,60.09,0Zm0,14.07c-2.96,0-5.36-2.4-5.36-5.36s2.4-5.36,5.36-5.36,5.36,2.4,5.36,5.36-2.4,5.36-5.36,5.36Z"/><path class="q" d="M33.25,26.47h-.01c-.18-.19-.37-.38-.56-.58-7.47-7.47-19.59-7.47-27.06,0s-7.47,19.59,0,27.06c.19,.19,.39,.38,.59,.56h-.01l32.71,32.73,27.06-27.06L33.25,26.47Z"/><path class="r" d="M72.3,53.07c7.47-7.47,7.47-19.59,0-27.06-7.47-7.47-19.59-7.47-27.06,0-.19,.19-.38,.39-.56,.59h-.01L11.95,59.3l27.06,27.06,32.71-32.71h-.01c.2-.2,.4-.38,.59-.58Z"/><g class="w"><ellipse class="m" cx="38.95" cy="90.66" rx="23.98" ry="2.27"/></g></g><path class="s" d="M94.27,59.61l-8.77-.25V30.39c.38-.08,.93-.19,1.64-.32,.72-.13,1.49-.19,2.34-.19,1.68,0,2.9,.3,3.66,.88,.76,.59,1.14,1.66,1.14,3.22v25.62Zm-8.77-4.8l8.77,.25v16.35c-.38,.08-.93,.19-1.64,.32-.72,.13-1.49,.19-2.34,.19-1.64,0-2.85-.3-3.63-.88-.78-.59-1.17-1.66-1.17-3.22v-13Z"/><path class="s" d="M147.35,56.01h-8.77v-22.72c.38-.13,.94-.25,1.67-.38,.74-.13,1.5-.19,2.3-.19,1.64,0,2.85,.3,3.63,.88,.78,.59,1.17,1.66,1.17,3.22v19.19Zm-8.77-1.64h8.77v7.01c0,1.26,.39,2.17,1.17,2.71,.78,.55,1.86,.82,3.25,.82,.67,0,1.38-.07,2.11-.22,.74-.15,1.38-.32,1.93-.54,.34,.34,.63,.77,.88,1.29,.25,.53,.38,1.15,.38,1.86,0,1.3-.58,2.4-1.74,3.28-1.16,.88-3.06,1.33-5.71,1.33-3.45,0-6.15-.78-8.11-2.33-1.96-1.56-2.93-4.08-2.93-7.57v-7.64Zm5.49-6v-6.82h12.24c.21,.34,.41,.8,.6,1.39s.28,1.24,.28,1.96c0,1.18-.27,2.05-.82,2.62s-1.28,.85-2.21,.85h-10.1Z"/><path class="s" d="M166.54,60.18l-.38-6.06,16.16-2.46c-.13-1.35-.68-2.55-1.67-3.6-.99-1.05-2.43-1.58-4.32-1.58-2.02,0-3.68,.67-4.99,2.02-1.3,1.35-2,3.28-2.08,5.81l.25,3.98c.38,2.44,1.39,4.21,3.03,5.3,1.64,1.09,3.64,1.64,6,1.64,1.77,0,3.42-.25,4.95-.76,1.54-.51,2.77-1.05,3.69-1.64,.59,.38,1.08,.88,1.48,1.52,.4,.63,.6,1.3,.6,2.02,0,1.18-.5,2.19-1.48,3.03-.99,.84-2.33,1.47-4.01,1.89-1.68,.42-3.62,.63-5.81,.63-3.28,0-6.2-.61-8.74-1.83-2.55-1.22-4.54-3.05-6-5.49-1.45-2.44-2.18-5.47-2.18-9.09,0-2.61,.42-4.9,1.26-6.88,.84-1.98,1.97-3.61,3.38-4.89,1.41-1.28,3.03-2.24,4.86-2.87,1.83-.63,3.73-.95,5.71-.95,2.86,0,5.35,.57,7.48,1.7,2.12,1.14,3.8,2.69,5.02,4.67,1.22,1.98,1.83,4.25,1.83,6.82,0,1.26-.34,2.22-1.01,2.87-.67,.65-1.6,1.06-2.78,1.23l-20.26,2.97Z"/><path class="s" d="M205.67,59.61l-8.77-.25V30.39c.38-.08,.93-.19,1.64-.32,.72-.13,1.49-.19,2.34-.19,1.68,0,2.9,.3,3.66,.88,.76,.59,1.14,1.66,1.14,3.22v25.62Zm-8.77-4.8l8.77,.25v16.35c-.38,.08-.93,.19-1.64,.32-.72,.13-1.49,.19-2.34,.19-1.64,0-2.85-.3-3.63-.88-.78-.59-1.17-1.66-1.17-3.22v-13Z"/><g><path class="u" d="M109.97,58.34c.25,1.77,.79,3.21,1.63,4.3,1.2,1.55,2.86,2.33,5,2.33l-.03-.03-6.6-6.6Z"/><path class="u" d="M116.62,64.98c2.1,0,3.75-.79,4.95-2.37,.82-1.08,1.34-2.5,1.6-4.2l-6.57,6.57h.01Z"/><path class="u" d="M115.02,48.56h0l1.58,1.58,1.55-1.55h0c.05-.05,.1-.11,.15-.16,.38-.38,.81-.66,1.25-.9-.86-.44-1.84-.67-2.94-.67s-2.09,.23-2.96,.66c.43,.23,.84,.51,1.2,.87,.05,.05,.1,.11,.15,.16Z"/><path class="s" d="M130.41,47.43c-1.33-2.4-3.17-4.25-5.52-5.55-2.36-1.3-5.11-1.96-8.27-1.96s-5.92,.65-8.3,1.96c-2.38,1.3-4.23,3.14-5.55,5.52-1.33,2.38-1.99,5.21-1.99,8.49s.65,6.18,1.96,8.58c1.3,2.4,3.14,4.24,5.52,5.52,2.38,1.28,5.16,1.92,8.36,1.92s5.97-.65,8.33-1.96c2.36-1.3,4.19-3.16,5.49-5.55,1.3-2.4,1.96-5.24,1.96-8.52s-.66-6.06-1.99-8.46Zm-4.68,8.42c-.05,.05-.11,.1-.16,.15h0l-2.4,2.4-6.57,6.57h0l-.03-.03-6.6-6.6-.79-.79-1.58-1.58h0c-.05-.05-.11-.11-.16-.16-2.05-2.05-2.05-5.37,0-7.42,1.69-1.69,4.22-1.96,6.22-.87,.43,.23,.84,.51,1.2,.87,.05,.05,.1,.11,.15,.16h0l1.58,1.58,1.55-1.55h0c.05-.05,.1-.11,.15-.16,.38-.38,.81-.66,1.25-.9,1.98-1.06,4.49-.77,6.17,.9,2.05,2.05,2.05,5.37,0,7.42Z"/><polygon class="v" points="116.6 64.98 116.6 64.97 116.6 64.97 116.6 64.98"/></g><g><path class="s" d="M92.43,82.17c0,.13-.04,.24-.12,.34-.08,.1-.18,.18-.28,.22-.24-.17-.53-.34-.88-.49-.34-.15-.78-.23-1.32-.23-.59,0-1.12,.14-1.58,.41-.47,.27-.84,.67-1.11,1.21-.28,.54-.41,1.2-.41,1.99,0,1.19,.29,2.08,.88,2.68,.58,.6,1.34,.9,2.28,.9,.5,0,.94-.07,1.32-.22,.38-.14,.69-.31,.93-.49,.1,.04,.19,.11,.28,.21,.09,.1,.13,.22,.13,.35,0,.1-.03,.19-.08,.28-.05,.09-.14,.18-.27,.27-.22,.15-.53,.29-.91,.41-.39,.12-.88,.18-1.48,.18-.8,0-1.53-.17-2.18-.51-.65-.34-1.17-.85-1.54-1.53-.38-.68-.56-1.52-.56-2.53s.2-1.86,.59-2.55c.39-.69,.91-1.2,1.55-1.54,.64-.34,1.34-.51,2.11-.51,.53,0,1,.06,1.4,.17,.41,.12,.72,.26,.95,.44s.34,.36,.34,.54Z"/><path class="s" d="M96.69,83.12c.84,0,1.51,.19,2,.56,.49,.38,.74,.97,.74,1.78v3.43c0,.21-.04,.37-.12,.48-.08,.11-.21,.21-.37,.31-.23,.13-.54,.24-.93,.35-.39,.11-.82,.16-1.3,.16-.91,0-1.61-.18-2.11-.54-.5-.36-.75-.87-.75-1.55,0-.63,.21-1.11,.63-1.44s1-.53,1.74-.6l2.06-.2v-.41c0-.48-.14-.83-.43-1.06-.29-.22-.68-.33-1.17-.33-.4,0-.77,.06-1.14,.17-.36,.12-.68,.25-.96,.39-.08-.07-.15-.15-.21-.24-.06-.09-.09-.19-.09-.28,0-.25,.14-.44,.42-.58,.26-.14,.56-.24,.9-.31,.34-.07,.71-.11,1.09-.11Zm.01,6.12c.41,0,.74-.04,1.01-.12,.27-.08,.46-.16,.57-.24v-2.1l-1.79,.19c-.5,.04-.87,.15-1.11,.33-.24,.18-.36,.45-.36,.8s.14,.64,.43,.84c.28,.2,.71,.3,1.27,.3Zm.14-9.25c.24,0,.47,.04,.67,.13,.21,.09,.37,.22,.5,.39s.19,.39,.19,.65c0,.34-.11,.59-.32,.76-.21,.17-.46,.27-.74,.3v.29s-.09,.04-.17,.06-.16,.03-.27,.03c-.14,0-.26-.02-.33-.07s-.12-.1-.12-.18v-.39c0-.14,.03-.23,.09-.3,.06-.06,.16-.09,.3-.09h.1c.36,0,.54-.13,.54-.39,0-.11-.04-.2-.12-.28-.08-.08-.22-.12-.41-.12-.13,0-.25,.02-.37,.06-.12,.04-.23,.09-.34,.15-.07-.03-.14-.08-.2-.15-.07-.07-.1-.16-.1-.27,0-.19,.12-.34,.36-.43s.49-.14,.74-.14Z"/><path class="s" d="M106.94,85.37v1.66h-1.16v-1.58c0-.47-.14-.82-.41-1.04-.28-.22-.64-.33-1.09-.33-.3,0-.59,.05-.87,.14-.28,.1-.52,.21-.71,.33v2.48h-1.16v-2.42c0-.19,.04-.36,.12-.49,.08-.13,.22-.27,.43-.39,.26-.16,.59-.31,.99-.43,.4-.12,.8-.18,1.21-.18,.49,0,.93,.07,1.3,.22,.38,.15,.66,.36,.84,.62,.06,.06,.11,.11,.14,.16,.04,.05,.08,.11,.12,.19,.07,.12,.13,.27,.17,.45,.05,.18,.07,.39,.07,.61Zm-5.4,.9h1.16v3.71s-.12,.04-.22,.07c-.1,.02-.2,.04-.32,.04-.2,0-.36-.04-.46-.12s-.16-.21-.16-.4v-3.29Zm4.24,0h1.16v3.71s-.12,.04-.22,.07c-.1,.02-.21,.04-.31,.04-.21,0-.37-.04-.47-.12-.1-.08-.15-.21-.15-.4v-3.29Zm5.4-.87v1.64h-1.16v-1.58c0-.47-.14-.82-.41-1.04s-.63-.33-1.09-.33c-.34,0-.66,.07-.98,.21-.31,.14-.6,.34-.85,.6l-.46-.84c.25-.25,.58-.47,.98-.65,.41-.18,.87-.27,1.39-.27s.97,.08,1.35,.25c.38,.16,.68,.41,.89,.75,.21,.34,.32,.76,.32,1.27Zm-1.16,.87h1.16v3.71s-.12,.04-.22,.07c-.1,.02-.21,.04-.31,.04-.21,0-.37-.04-.47-.12s-.15-.21-.15-.4v-3.29Z"/><path class="s" d="M119.7,86.22l.22-.1c.4-.51,.77-.99,1.11-1.43,.35-.44,.7-.93,1.07-1.46,.04,0,.07-.01,.09-.01h.07c.2,0,.36,.05,.48,.14,.12,.09,.17,.21,.17,.37,0,.11-.02,.21-.07,.3-.04,.1-.11,.21-.21,.33-.33,.41-.66,.82-1.01,1.23-.34,.42-.68,.82-1.01,1.22l-.38,.32c-.36,.47-.72,.96-1.1,1.47-.38,.51-.74,1-1.09,1.48h-.2c-.22,0-.39-.05-.5-.14s-.17-.22-.17-.36c0-.08,.02-.16,.05-.25,.03-.09,.11-.21,.24-.36,.35-.46,.71-.92,1.1-1.37,.39-.45,.76-.9,1.11-1.37Zm.71,.03l.26,.17c.4,.52,.79,1.03,1.19,1.54,.4,.51,.8,1.02,1.19,1.53-.02,.18-.08,.33-.19,.43-.11,.11-.25,.16-.42,.16-.15,0-.28-.04-.39-.12-.11-.08-.23-.21-.36-.38-.29-.41-.6-.83-.92-1.29-.32-.45-.63-.88-.92-1.27l-.33-.3c-.42-.51-.82-1-1.19-1.46-.37-.46-.74-.94-1.13-1.43,.04-.19,.11-.34,.22-.45,.11-.11,.24-.16,.39-.16,.16,0,.29,.04,.39,.12s.19,.19,.29,.33c.29,.39,.59,.81,.91,1.27,.32,.46,.65,.9,1,1.32Z"/><path class="s" d="M125.83,86.99h-1.16v-3.65s.12-.04,.22-.07,.21-.04,.33-.04c.2,0,.35,.04,.46,.12s.15,.22,.15,.41v3.21Zm-1.16,.56v-1.32h1.16v1.26c0,.62,.16,1.06,.49,1.33s.78,.41,1.36,.41c.39,0,.71-.04,.98-.12s.48-.17,.64-.25v-2.62h1.16v2.58c0,.2-.03,.36-.08,.48-.05,.12-.18,.24-.38,.36-.21,.13-.52,.25-.91,.36-.4,.12-.87,.17-1.42,.17-.64,0-1.18-.09-1.63-.28-.45-.19-.79-.48-1.02-.87-.23-.39-.35-.89-.35-1.48Zm2.66-5.92l1.4-1.58c.21,0,.38,.07,.51,.18,.13,.11,.2,.23,.2,.37,0,.13-.03,.23-.09,.32-.06,.09-.15,.19-.29,.32l-1.32,1.29c-.18,0-.34-.05-.46-.15-.12-.1-.18-.21-.18-.34,0-.09,.02-.16,.07-.22,.05-.06,.1-.12,.14-.18Zm3.13,5.36h-1.16v-3.65s.12-.04,.22-.07,.21-.04,.31-.04c.21,0,.37,.04,.47,.12s.15,.22,.15,.41v3.21Z"/><path class="s" d="M135.73,84.09c-.66,0-1.2,.22-1.64,.67-.43,.44-.65,1.08-.65,1.91s.21,1.45,.63,1.9c.42,.44,.97,.67,1.66,.67,.41,0,.74-.06,1.01-.17,.27-.11,.51-.24,.72-.38,.11,.06,.19,.13,.26,.22,.07,.09,.1,.19,.1,.32,0,.27-.2,.5-.6,.69-.4,.19-.9,.28-1.5,.28-.67,0-1.26-.13-1.79-.38-.53-.26-.94-.64-1.24-1.17-.3-.52-.45-1.18-.45-1.97s.15-1.43,.46-1.96c.31-.53,.73-.92,1.25-1.19,.53-.27,1.1-.4,1.73-.4s1.09,.1,1.48,.3c.39,.2,.59,.43,.59,.69,0,.12-.03,.22-.1,.3-.07,.09-.15,.15-.26,.2-.21-.14-.45-.27-.7-.38s-.58-.16-.98-.16Z"/><path class="s" d="M145.06,86.61h-1.16v-5.24s.12-.04,.22-.07c.1-.02,.21-.04,.33-.04,.2,0,.36,.04,.46,.12s.15,.21,.15,.4v4.82Zm-1.16-.43h1.16v2c0,.39,.11,.66,.33,.82,.22,.16,.53,.24,.91,.24,.16,0,.35-.03,.55-.09,.2-.06,.37-.12,.51-.2,.06,.06,.11,.13,.16,.22,.05,.09,.07,.19,.07,.3,0,.21-.13,.39-.38,.52-.25,.13-.6,.2-1.04,.2-.68,0-1.22-.15-1.64-.45-.42-.3-.63-.8-.63-1.49v-2.07Zm.59-1.77v-.96h2.94s.06,.1,.09,.19c.03,.09,.04,.18,.04,.27,0,.15-.04,.27-.12,.36-.08,.09-.18,.13-.32,.13h-2.63Z"/><path class="s" d="M150.46,86.74h-1.16v-6.12s.12-.04,.22-.06,.21-.04,.33-.04c.2,0,.35,.04,.46,.12,.1,.08,.15,.21,.15,.4v5.7Zm-1.16-.56h1.16v3.79s-.12,.04-.22,.07c-.1,.02-.2,.04-.32,.04-.2,0-.36-.04-.46-.12s-.16-.21-.16-.4v-3.37Zm5.78,.94h-1.16v-1.33c0-.58-.16-1.01-.48-1.29-.32-.28-.74-.42-1.25-.42-.38,0-.73,.07-1.05,.22-.32,.15-.6,.32-.82,.52l-.22-.94c.23-.16,.54-.33,.92-.5,.38-.17,.82-.25,1.32-.25,.8,0,1.46,.22,1.97,.65s.77,1.1,.77,1.98v1.36Zm-1.16-.93h1.16v3.78s-.12,.04-.22,.07c-.1,.02-.21,.04-.31,.04-.21,0-.37-.04-.47-.12s-.15-.21-.15-.4v-3.36Z"/><path class="s" d="M159.62,83.12c.84,0,1.51,.19,2,.56,.49,.38,.74,.97,.74,1.78v3.43c0,.21-.04,.37-.12,.48-.08,.11-.21,.21-.37,.31-.23,.13-.54,.24-.93,.35-.39,.11-.82,.16-1.3,.16-.91,0-1.61-.18-2.11-.54-.5-.36-.75-.87-.75-1.55,0-.63,.21-1.11,.63-1.44s1-.53,1.74-.6l2.06-.2v-.41c0-.48-.14-.83-.43-1.06-.29-.22-.68-.33-1.17-.33-.4,0-.77,.06-1.14,.17-.36,.12-.68,.25-.96,.39-.08-.07-.15-.15-.21-.24-.06-.09-.09-.19-.09-.28,0-.25,.14-.44,.42-.58,.26-.14,.56-.24,.9-.31,.34-.07,.71-.11,1.09-.11Zm.01,6.12c.41,0,.74-.04,1.01-.12,.27-.08,.46-.16,.57-.24v-2.1l-1.79,.19c-.5,.04-.87,.15-1.11,.33-.24,.18-.36,.45-.36,.8s.14,.64,.43,.84c.28,.2,.71,.3,1.27,.3Zm.19-7.92c.31,0,.56-.08,.75-.25,.19-.16,.31-.4,.36-.71,.04,0,.08-.02,.12-.02,.04,0,.08,0,.13,0,.15,0,.28,.04,.37,.13,.09,.09,.14,.23,.14,.42,0,.3-.15,.59-.46,.86s-.77,.41-1.39,.41-1.11-.14-1.4-.41c-.3-.27-.45-.56-.45-.86,0-.19,.05-.33,.14-.42,.09-.09,.21-.13,.37-.13,.05,0,.09,0,.14,0s.08,.01,.11,.02c.05,.31,.17,.55,.36,.71,.19,.16,.44,.25,.74,.25Z"/><path class="s" d="M170.26,85.58v1.48h-1.16v-1.42c0-.54-.15-.94-.46-1.19-.3-.25-.71-.38-1.22-.38-.39,0-.73,.05-1.03,.14-.3,.1-.55,.21-.77,.33v2.5h-1.16v-2.45c0-.2,.04-.37,.12-.5,.08-.13,.22-.26,.43-.38,.25-.14,.58-.28,1-.41,.41-.13,.88-.2,1.4-.2,.88,0,1.57,.2,2.08,.6,.51,.4,.76,1.02,.76,1.86Zm-5.79,.68h1.16v3.71s-.12,.04-.22,.07c-.1,.02-.2,.04-.32,.04-.2,0-.36-.04-.46-.12s-.16-.21-.16-.4v-3.29Zm4.63,0h1.16v3.71s-.12,.04-.22,.07c-.1,.02-.21,.04-.31,.04-.21,0-.37-.04-.47-.12s-.15-.21-.15-.4v-3.29Z"/><path class="s" d="M175.21,89.8c-.56,0-1.08-.11-1.55-.33-.47-.22-.85-.57-1.14-1.06-.29-.49-.43-1.14-.43-1.95,0-.73,.14-1.35,.43-1.84s.68-.86,1.18-1.11c.5-.25,1.08-.38,1.72-.38,.44,0,.85,.06,1.22,.17,.37,.11,.68,.25,.93,.41,.15,.1,.26,.21,.35,.33,.09,.12,.14,.27,.14,.44v4.47h-1.16v-4.46c-.16-.11-.37-.2-.62-.28-.25-.08-.54-.12-.88-.12-.65,0-1.17,.2-1.56,.59-.4,.4-.59,.98-.59,1.77,0,.87,.2,1.49,.6,1.85,.4,.37,.89,.55,1.48,.55,.42,0,.77-.07,1.03-.22,.26-.14,.47-.3,.62-.48l.06,1.03c-.15,.15-.37,.3-.69,.43-.31,.13-.7,.2-1.15,.2Zm1.69,.42v-1.52h1.16v1.59c0,.64-.14,1.15-.41,1.53-.27,.39-.65,.67-1.13,.84-.48,.17-1.02,.26-1.61,.26-.48,0-.9-.05-1.25-.16-.35-.11-.58-.19-.71-.26-.29-.16-.43-.37-.43-.62,0-.14,.03-.25,.09-.34,.06-.09,.14-.16,.24-.21,.2,.15,.49,.3,.86,.43s.77,.2,1.19,.2c.65,0,1.14-.14,1.48-.42,.34-.28,.51-.72,.51-1.32Z"/><path class="s" d="M185.73,86.74h-1.16v-6.12s.12-.04,.22-.06,.21-.04,.33-.04c.2,0,.35,.04,.46,.12,.1,.08,.15,.21,.15,.4v5.7Zm-1.16-.56h1.16v3.79s-.12,.04-.22,.07c-.1,.02-.2,.04-.32,.04-.2,0-.36-.04-.46-.12s-.16-.21-.16-.4v-3.37Zm5.78,.94h-1.16v-1.33c0-.58-.16-1.01-.48-1.29-.32-.28-.74-.42-1.25-.42-.38,0-.73,.07-1.05,.22-.32,.15-.6,.32-.82,.52l-.22-.94c.23-.16,.54-.33,.92-.5,.38-.17,.82-.25,1.32-.25,.8,0,1.46,.22,1.97,.65s.77,1.1,.77,1.98v1.36Zm-1.16-.93h1.16v3.78s-.12,.04-.22,.07c-.1,.02-.21,.04-.31,.04-.21,0-.37-.04-.47-.12s-.15-.21-.15-.4v-3.36Z"/><path class="s" d="M198.73,86.66c0,.71-.14,1.34-.41,1.87s-.65,.94-1.14,1.23c-.49,.29-1.07,.43-1.74,.43s-1.25-.15-1.74-.43c-.5-.29-.88-.7-1.15-1.23s-.41-1.15-.41-1.87,.14-1.35,.41-1.87c.27-.53,.66-.93,1.16-1.22,.5-.29,1.07-.43,1.73-.43s1.23,.15,1.72,.43c.49,.29,.88,.7,1.15,1.22,.27,.53,.41,1.15,.41,1.87Zm-3.29-2.58c-.65,0-1.16,.23-1.54,.69s-.57,1.09-.57,1.89,.19,1.44,.56,1.9c.37,.45,.89,.68,1.56,.68s1.17-.23,1.54-.69c.37-.46,.56-1.09,.56-1.89s-.19-1.43-.56-1.89c-.37-.46-.89-.69-1.54-.69Z"/><path class="s" d="M202.93,83.12c.84,0,1.51,.19,2,.56,.49,.38,.74,.97,.74,1.78v3.43c0,.21-.04,.37-.12,.48-.08,.11-.21,.21-.37,.31-.23,.13-.54,.24-.93,.35-.39,.11-.82,.16-1.3,.16-.91,0-1.61-.18-2.11-.54-.5-.36-.75-.87-.75-1.55,0-.63,.21-1.11,.63-1.44s1-.53,1.74-.6l2.06-.2v-.41c0-.48-.14-.83-.43-1.06-.29-.22-.68-.33-1.17-.33-.4,0-.77,.06-1.14,.17-.36,.12-.68,.25-.96,.39-.08-.07-.15-.15-.21-.24-.06-.09-.09-.19-.09-.28,0-.25,.14-.44,.42-.58,.26-.14,.56-.24,.9-.31,.34-.07,.71-.11,1.09-.11Zm.01,6.12c.41,0,.74-.04,1.01-.12,.27-.08,.46-.16,.57-.24v-2.1l-1.79,.19c-.5,.04-.87,.15-1.11,.33-.24,.18-.36,.45-.36,.8s.14,.64,.43,.84c.28,.2,.71,.3,1.27,.3Z"/></g></g></g></g></svg>